<svg width="136" height="28" viewBox="0 0 136 28" fill="none" xmlns="http://www.w3.org/2000/svg">
<path d="M15.4887 9.52577C10.3397 11.9794 5.21153 14.4124 0.0833844 16.866C0.0625383 11.9588 0.0208461 7.07216 0 2.16495C5.16983 4.61856 10.3188 7.07216 15.4887 9.52577Z" fill="url(#paint0_linear)"/>
<path d="M23.6187 2.12371C23.6187 4.18557 23.6187 6.26804 23.6187 8.3299C15.7597 5.56701 7.87985 2.78351 0.020874 0C7.87985 0.701031 15.7597 1.42268 23.6187 2.12371Z" fill="url(#paint1_linear)"/>
<path d="M8.21338 16.8454C13.3415 14.3917 18.4905 11.9381 23.6187 9.48453C23.6187 14.4124 23.6187 19.3196 23.6187 24.2474C18.4905 21.7732 13.3415 19.3196 8.21338 16.8454Z" fill="url(#paint2_linear)"/>
<path d="M23.6395 26.3711C15.7806 25.6701 7.90073 24.9691 0.041748 24.268C0.041748 22.1856 0.041748 20.1031 0.041748 18.0412C7.90073 20.8041 15.7597 23.5876 23.6395 26.3711Z" fill="url(#paint3_linear)"/>
<path d="M29.6639 12.7835C31.8736 10 34.1042 7.2165 36.3347 4.41238C34.1667 4.41238 31.9987 4.41238 29.8307 4.41238C29.8307 3.64949 29.8307 2.90722 29.8307 2.14434C33.1452 2.14434 36.4598 2.12372 39.7743 2.12372C39.7743 2.84537 39.7743 3.56702 39.7743 4.30928C37.5021 7.15464 35.2298 9.97939 32.9785 12.8247C35.2507 12.8247 37.5229 12.8247 39.7951 12.8247C39.7951 13.567 39.7951 14.3299 39.7951 15.0928C36.4181 15.0928 33.041 15.0928 29.6848 15.0928C29.6639 14.3093 29.6639 13.5464 29.6639 12.7835Z" fill="#1D2850"/>
<path d="M40.3997 10.2681C40.3997 9.77321 40.4205 7.52579 42.1924 6.12372C43.4432 5.13403 44.8607 5.13403 45.3819 5.13403C45.903 5.13403 47.133 5.15465 48.2795 5.95878C50.239 7.34022 50.2807 9.83506 50.2807 10.2474C50.2807 10.7835 50.3224 13.2784 48.342 14.6392C47.133 15.4639 45.8196 15.4227 45.2985 15.3815C44.819 15.4021 43.4015 15.4021 42.1716 14.433C40.3997 13.0722 40.3997 10.8454 40.3997 10.2681ZM47.5916 10.2268C47.5916 9.6495 47.5916 8.35053 46.6743 7.73197C46.1532 7.36084 45.5278 7.34022 45.361 7.34022C45.2151 7.34022 44.7357 7.3196 44.3187 7.52579C43.0888 8.10311 43.0471 10.0206 43.0263 10.2474C43.0263 10.7835 42.9846 12.3711 44.1937 13.0516C44.9024 13.4639 45.8822 13.4639 46.591 13.0103C47.5916 12.3299 47.5916 11.0103 47.5916 10.2268Z" fill="#1D2850"/>
<path d="M51.5941 5.52578C52.4071 5.52578 53.1993 5.50516 54.0123 5.50516C54.0123 6.04124 54.0331 6.57733 54.0331 7.11341C54.1374 6.8866 54.5543 6.00001 55.5757 5.5464C56.2845 5.2165 56.9307 5.25774 57.2226 5.29898C57.2226 6.14434 57.2226 7.01032 57.2226 7.85568C57.1809 7.85568 57.0975 7.83506 57.0141 7.83506C56.9933 7.83506 56.9933 7.83506 56.9724 7.83506C55.8259 7.75258 55.2213 8.08248 55.2213 8.08248C55.0754 8.16496 54.6377 8.39176 54.4292 8.86599C54.2833 9.19588 54.2416 9.62887 54.179 10.0619C54.179 10.0619 54.179 10.1443 54.1582 10.2268C54.0957 10.9485 54.1165 14.1443 54.1374 15.0722C53.3035 15.0722 52.4697 15.0722 51.6358 15.0722C51.615 11.8969 51.5941 8.70104 51.5941 5.52578Z" fill="#1D2850"/>
<path d="M60.558 13.9381C60.558 14.3093 60.558 14.701 60.558 15.0722C59.7241 15.0722 58.8903 15.0722 58.0773 15.0722C58.0773 10.7629 58.0773 6.45361 58.0773 2.16495C58.932 2.16495 59.7658 2.16495 60.6205 2.16495C60.6205 3.6701 60.6413 5.19587 60.6413 6.70103C60.829 6.43299 61.2667 5.91752 61.9963 5.58763C62.6217 5.31959 63.1637 5.31959 63.4556 5.31959C63.5389 5.31959 64.4353 5.3402 65.2483 5.75258C66.8118 6.53608 67.2704 8.35051 67.3955 8.84536C67.9166 10.8866 67.3538 13.4845 65.6653 14.6804C64.6855 15.3814 63.5598 15.4021 63.5598 15.4021C62.7259 15.4227 62.1006 15.1546 61.9338 15.0928C61.1833 14.7216 60.7664 14.2062 60.558 13.9381ZM64.4979 8.45361C64.206 7.97938 63.6432 7.54639 62.9344 7.48453C62.8302 7.48453 62.1631 7.42268 61.5377 7.83505C60.5788 8.49484 60.558 9.77319 60.5371 10.268C60.5371 10.5773 60.4954 12.1856 61.6003 12.9278C62.038 13.2165 62.4966 13.2783 62.58 13.2783C62.6843 13.2783 63.4139 13.3402 63.9976 12.8866C64.6855 12.3711 64.7689 11.5464 64.8523 10.8041C64.8731 10.6186 64.9148 10.1237 64.8106 9.50515C64.748 9.07216 64.7063 8.76289 64.4979 8.45361Z" fill="#1D2850"/>
<path d="M74.504 15.0722C74.4415 14.9897 74.3789 14.866 74.3372 14.7423C74.233 14.4536 74.233 14.2062 74.2538 14.0412C74.0871 14.2268 73.8161 14.4536 73.4617 14.6804C73.1698 14.866 72.4819 15.3196 71.5647 15.4021C70.6266 15.4845 69.2299 15.1959 68.5629 14.1237C68.146 13.4639 68.1668 12.7835 68.1668 12.4536C68.1668 12.1649 68.1876 11.4021 68.6463 10.7629C69.3967 9.71133 71.0644 9.29896 72.2318 9.27834C72.7738 9.27834 73.5034 9.3402 73.9412 8.86597C74.1079 8.70102 74.1705 8.49484 74.2122 8.37113C74.1913 8.20618 74.0871 7.81442 73.7327 7.54638C73.4409 7.31958 73.1073 7.3402 72.6487 7.3402C72.1275 7.36082 71.7106 7.36082 71.3562 7.64948C70.981 7.95875 70.8768 8.41236 70.8559 8.61855C70.0429 8.61855 69.2091 8.61855 68.3961 8.63917C68.3961 8.26803 68.4586 7.31958 69.1466 6.53607C69.4593 6.16494 69.7928 5.95875 70.0221 5.83504C71.1269 5.19587 72.2735 5.2371 72.9822 5.29896C73.6702 5.3402 75.1294 5.38143 76.0049 6.30927C76.1091 6.43298 76.3801 6.72164 76.5469 7.19587C76.6511 7.52577 76.672 7.81442 76.6928 8.41236C76.6928 8.70102 76.6928 9.09278 76.672 9.567C76.6928 11.0928 76.7345 12.6185 76.7554 14.1237C76.7554 14.1856 76.7971 14.3299 76.9013 14.4948C77.0264 14.6392 77.1514 14.701 77.214 14.7216C77.214 14.8454 77.214 14.9484 77.214 15.0722C76.3384 15.0722 75.4212 15.0722 74.504 15.0722ZM74.2122 10.433C74.1496 10.4742 74.0245 10.5567 73.8995 10.6392C73.2949 10.9484 72.9197 10.8454 72.0442 11.0515C71.6064 11.1546 71.3979 11.2165 71.1895 11.3814C70.7517 11.7526 70.7309 12.3093 70.7309 12.3505C70.7309 12.433 70.71 12.9484 71.1061 13.3196C71.6481 13.835 72.5236 13.5464 72.7738 13.4639C72.9405 13.4021 73.6702 13.1546 74.0037 12.4948C74.1288 12.2268 74.1913 11.8969 74.2122 11.7938C74.2122 11.732 74.233 11.5876 74.233 11.134C74.2122 10.8454 74.2122 10.6185 74.2122 10.433Z" fill="#1D2850"/>
<path d="M77.8186 12.0206C78.6733 12.0206 79.528 12.0206 80.3827 12.0206C80.4035 12.1649 80.5494 12.866 81.1748 13.2577C81.5918 13.5051 82.0087 13.5051 82.4256 13.4845C82.6341 13.4845 83.9265 13.4227 84.1141 12.7629C84.1767 12.5361 84.0933 12.3093 84.0516 12.268C83.8431 11.8144 83.2594 11.7113 82.3839 11.5051C81.5084 11.299 81.0498 11.1753 80.5703 11.0309C79.5488 10.6804 78.8609 10.4536 78.444 9.79381C77.9854 9.09278 78.0896 8.26804 78.1105 8.08247C78.1313 7.97938 78.1938 7.50515 78.5065 6.96907C79.0694 6.02061 79.9449 5.62886 80.2785 5.48453C81.1957 5.09278 81.9878 5.15463 82.8842 5.21649C83.7806 5.27835 84.3434 5.48453 84.6978 5.6701C85.1356 5.87628 85.3857 6.10309 85.49 6.2268C85.5317 6.26804 85.7401 6.49484 85.9486 6.84536C86.2613 7.42268 86.3655 7.99999 86.4072 8.43298C85.5733 8.43298 84.7187 8.43298 83.8848 8.43298C83.864 8.20618 83.8014 7.85566 83.5513 7.56701C83.2177 7.21649 82.7174 7.19587 82.2588 7.15463C81.8836 7.13402 81.5501 7.17525 81.3416 7.23711C81.0081 7.31958 80.883 7.48453 80.8621 7.52577C80.8204 7.58762 80.6537 7.77319 80.6745 8.04123C80.6745 8.18556 80.7371 8.28865 80.7579 8.32989C80.9455 8.68041 81.4458 8.80412 82.3214 9.0103C82.7591 9.1134 82.9884 9.15463 83.1761 9.19587C83.8431 9.31958 85.4691 9.62886 86.2404 10.7423C86.7616 11.5051 86.6156 12.3917 86.5948 12.6185C86.574 12.8041 86.4906 13.4433 86.0945 14C85.0105 15.5464 82.509 15.4021 81.7794 15.3608C81.1957 15.3196 79.8407 15.2371 78.8401 14.3505C78.6525 14.1856 78.3189 13.8763 78.0688 13.3402C77.7978 12.8041 77.7978 12.3093 77.8186 12.0206Z" fill="#1D2850"/>
<path d="M88.2208 2.12372C89.5341 2.12372 90.8474 2.12372 92.1816 2.12372C92.9946 5.50516 93.7867 8.86599 94.5997 12.2474C95.371 8.86599 96.1423 5.50516 96.9136 2.12372C98.2478 2.12372 99.5611 2.14434 100.895 2.14434C100.895 6.45362 100.895 10.7629 100.874 15.0928C100.041 15.0928 99.1859 15.0928 98.3312 15.0928C98.3312 11.5052 98.3103 7.91753 98.2895 4.3299C97.4765 7.93815 96.6635 11.5258 95.8505 15.134C94.975 15.134 94.0786 15.134 93.203 15.134C92.39 11.5464 91.5562 7.95877 90.7432 4.37114C90.7432 7.93815 90.7224 11.5258 90.7224 15.1134C89.8885 15.1134 89.0547 15.1134 88.2208 15.1134C88.2208 10.7629 88.2208 6.45362 88.2208 2.12372Z" fill="#1D2850"/>
<path d="M101.917 10.0412C102 9.2165 102.167 7.36082 103.709 6.18557C104.898 5.27835 106.253 5.27835 106.795 5.27835C107.378 5.27835 108.629 5.27835 109.734 6.12371C111.547 7.48454 111.527 9.93814 111.527 10.3505C111.527 10.5979 111.506 10.8247 111.485 10.9485C109.15 10.9691 106.815 10.9691 104.481 10.9897C104.481 11.2784 104.522 12.0206 105.064 12.6186C105.856 13.4845 107.357 13.6495 108.212 13.0103C108.483 12.8041 108.65 12.5361 108.754 12.3299C109.63 12.3299 110.505 12.3299 111.36 12.3299C111.297 12.5773 111.193 12.9278 110.985 13.299C110.568 14.0412 110.005 14.433 109.734 14.6186C108.587 15.4021 107.378 15.4227 106.878 15.4227C106.253 15.4227 103.98 15.3402 102.75 13.7113C102.292 13.1134 102.104 12.4742 102.021 12.1649C102.042 11.9381 101.812 11.134 101.917 10.0412ZM108.942 9.38144C108.942 9.23711 108.9 8.45361 108.254 7.87629C107.691 7.36083 107.024 7.36083 106.774 7.36083C106.544 7.36083 105.982 7.36083 105.46 7.73196C104.647 8.28866 104.585 9.25773 104.564 9.38144C106.023 9.38144 107.482 9.38144 108.942 9.38144Z" fill="#1D2850"/>
<path d="M122.992 2.04123C123.847 2.04123 124.681 2.04123 125.535 2.06185C125.535 2.82473 125.535 3.58762 125.535 4.37113C124.681 4.37113 123.826 4.37113 122.992 4.37113C122.992 3.58762 122.992 2.82473 122.992 2.04123ZM123.013 5.52577C123.847 5.52577 124.701 5.52577 125.556 5.52577C125.556 8.70102 125.556 11.8763 125.556 15.0722C124.701 15.0722 123.868 15.0722 123.013 15.0722C123.013 11.8763 123.013 8.70102 123.013 5.52577Z" fill="#1D2850"/>
<path d="M31.9571 20.3505C32.4365 20.3505 32.916 20.3505 33.3746 20.3505C34.0625 22.2887 34.7504 24.2268 35.4592 26.1856C35.0214 26.1856 34.5837 26.1856 34.1459 26.1856C34 25.7732 33.8749 25.3815 33.729 24.9691C32.9994 24.9691 32.2906 24.9691 31.561 24.9691C31.4359 25.3815 31.29 25.7732 31.1441 26.1856C30.7271 26.1856 30.2894 26.1856 29.8724 26.1856C30.5604 24.2474 31.2691 22.2887 31.9571 20.3505ZM33.4371 23.9588C33.1661 23.1959 32.8951 22.4536 32.6241 21.6907C32.374 22.4536 32.103 23.1959 31.8528 23.9588C32.3948 23.9588 32.916 23.9588 33.4371 23.9588Z" fill="#1D2850"/>
<path d="M36.0846 22.6598C35.8762 22.6598 35.6677 22.6598 35.4592 22.6598C35.4592 22.4124 35.4592 22.1443 35.4592 21.8763H36.0638V21.5464C36.0638 21.4639 36.0221 20.8247 36.4598 20.4742C36.7934 20.2062 37.252 20.2268 37.5855 20.2268C37.7523 20.2268 37.8774 20.2474 37.9816 20.268C37.9816 20.5773 37.9816 20.8866 37.9608 21.1959C37.8148 21.1546 37.6898 21.1546 37.6272 21.1546C37.5022 21.1546 37.3979 21.1546 37.3145 21.2371C37.2728 21.299 37.252 21.3814 37.252 21.4227C37.252 21.5876 37.252 21.732 37.252 21.8763C37.5022 21.8763 37.7732 21.8763 38.0233 21.8763C38.0233 22.1237 38.0233 22.3918 38.0233 22.6392C37.7732 22.6392 37.5022 22.6392 37.252 22.6392C37.252 23.8144 37.252 24.9897 37.252 26.165C36.8559 26.165 36.4807 26.165 36.0846 26.165C36.0846 25.0103 36.0846 23.8351 36.0846 22.6598Z" fill="#1D2850"/>
<path d="M42.1092 20.3093H40.9626V21.3196H42.1092V20.3093Z" fill="#1D2850"/>
<path d="M42.1091 21.8557H40.9418V26.1856H42.1091V21.8557Z" fill="#1D2850"/>
<path d="M43.0264 20.3093H44.1729V26.1856H43.0264V20.3093Z" fill="#1D2850"/>
<path d="M51.615 25.0309C51.6358 24.4742 51.6358 23.732 51.615 22.7423H51.0521V21.8763H51.615C51.615 21.4639 51.6358 21.0515 51.6358 20.6598C52.011 20.6598 52.3863 20.6598 52.7615 20.6598C52.7615 21.0722 52.7615 21.5052 52.7615 21.9175C53.0117 21.9175 53.2618 21.9175 53.512 21.9175C53.512 22.1856 53.512 22.4536 53.512 22.7216C53.2618 22.7216 53.0117 22.7216 52.7615 22.7216C52.7615 23.4433 52.7615 24.1443 52.7615 24.866C52.7615 24.8866 52.699 25.2577 52.9074 25.3814C52.9908 25.4227 53.0742 25.4227 53.1784 25.4227C53.3035 25.4227 53.4703 25.4021 53.4703 25.4021C53.4703 25.6907 53.4703 25.9794 53.4703 26.2474C53.3869 26.2474 53.241 26.2474 53.0742 26.268C52.5322 26.268 52.3654 26.2474 52.3029 26.2268C52.1361 26.1856 52.011 26.1649 51.9068 26.0825C51.5733 25.8144 51.5941 25.299 51.615 25.0309Z" fill="#1D2850"/>
<path d="M60.4328 21.8144H61.3709V22.4536C61.6211 22.0618 61.9754 21.7113 62.6008 21.7113C63.1845 21.7113 63.6014 22.0206 63.8099 22.4742C64.1434 22.0206 64.5604 21.7113 65.1857 21.7113C66.0613 21.7113 66.6033 22.3093 66.6033 23.3608V26.1031H65.6652V23.6701C65.6652 22.9897 65.3734 22.6185 64.8522 22.6185C64.3519 22.6185 63.9767 22.9897 63.9767 23.6907V26.1031H63.0386V23.6495C63.0386 22.9897 62.7259 22.6185 62.2256 22.6185C61.7044 22.6185 61.3501 23.0309 61.3501 23.6907V26.1031H60.412L60.4328 21.8144Z" fill="#1D2850"/>
<path d="M74.8375 20.3299C75.1919 20.3299 75.5671 20.3299 75.9215 20.3299C75.9215 21.3814 75.9215 22.433 75.9424 23.4845C76.4218 22.9485 76.9221 22.4124 77.4016 21.8763C77.8811 21.8763 78.3397 21.8763 78.8191 21.8763C78.298 22.4124 77.7768 22.9485 77.2557 23.4845C77.7977 24.4124 78.3397 25.3196 78.9025 26.2474C78.4439 26.2474 77.9853 26.2474 77.5267 26.2474C77.1514 25.6289 76.7971 25.0103 76.4218 24.3918C76.2759 24.5567 76.1091 24.701 75.9632 24.866C75.9632 25.3196 75.9424 25.7732 75.9424 26.2268C75.5671 26.2268 75.2128 26.2268 74.8375 26.2268V20.3299Z" fill="#1D2850"/>
<path d="M88.1791 21.8557C88.5335 21.8557 88.8878 21.8557 89.2422 21.8557C89.2422 22.0619 89.2422 22.268 89.2422 22.4742C89.3048 22.3505 89.4924 22.0206 89.8468 21.8557C90.0552 21.7526 90.2428 21.7526 90.4305 21.7526C90.7223 21.7526 91.2226 21.732 91.6187 22.0412C92.2024 22.5155 92.0981 23.4021 92.0773 23.4433C92.0773 24.3711 92.0773 25.2783 92.0773 26.2062C91.7021 26.2062 91.3268 26.2062 90.9516 26.1856C90.9516 25.3608 90.9308 24.5361 90.9308 23.7113C90.9933 23.3402 90.8682 22.9897 90.5972 22.8247C90.4305 22.7216 90.222 22.701 90.1595 22.701C90.1386 22.701 89.9093 22.701 89.7217 22.8041C89.4298 22.9691 89.2631 23.3196 89.2839 23.732C89.2839 24.5567 89.2839 25.3814 89.2839 26.2062C88.9087 26.2062 88.5543 26.2062 88.1791 26.2062C88.1791 24.7423 88.1791 23.299 88.1791 21.8557Z" fill="#1D2850"/>
<path d="M92.786 26.6804C93.2029 26.6804 93.599 26.6804 94.0159 26.6804C94.0368 26.7423 94.0785 26.8866 94.2036 26.9897C94.2661 27.0309 94.3495 27.0928 94.5371 27.1134C94.7664 27.134 95.1625 27.1959 95.4752 26.9072C95.8087 26.5773 95.7462 26.1237 95.7462 26.0619C95.7462 25.9175 95.7462 25.7732 95.7462 25.6289C95.6628 25.7526 95.4543 26 95.0999 26.1237C94.8289 26.2268 94.5788 26.2062 94.3703 26.1856C94.1827 26.165 93.7449 26.1237 93.3697 25.8763C92.6401 25.3815 92.6609 24.3711 92.6609 24C92.6609 23.6701 92.6609 22.8454 93.2863 22.2474C93.3906 22.165 93.8075 21.7732 94.4746 21.732C94.6205 21.732 94.8915 21.7114 95.2042 21.8557C95.6419 22.0619 95.8295 22.4536 95.8921 22.5773V21.8763H96.8927V25.567C96.9135 25.6701 97.1428 26.6186 96.5383 27.3196C95.8921 28.0619 94.7455 27.9588 94.5996 27.9382H94.5788C94.1827 27.8969 93.599 27.8351 93.2446 27.5258C93.1196 27.4639 92.8694 27.2165 92.786 26.6804ZM95.7878 23.8969C95.7878 23.6083 95.767 23.3402 95.5794 23.0928C95.3918 22.8454 95.0165 22.6186 94.6413 22.701C94.3912 22.7629 94.2244 22.9278 94.1619 23.0309C93.8492 23.3815 93.87 23.8144 93.87 24.0413C93.87 24.2887 93.87 24.701 94.1827 25.0103C94.2452 25.0722 94.412 25.2371 94.6413 25.2784C95.1208 25.3608 95.4752 24.9691 95.5169 24.9485C95.8087 24.6392 95.7878 24.2268 95.7878 23.8969Z" fill="#1D2850"/>
<path d="M118.698 13.9381C118.698 14.3093 118.698 14.701 118.698 15.0722C119.532 15.0722 120.365 15.0722 121.178 15.0722C121.178 10.7629 121.178 6.45361 121.178 2.16495C120.324 2.16495 119.49 2.16495 118.635 2.16495C118.635 3.6701 118.614 5.19587 118.614 6.70103C118.427 6.43299 117.989 5.91752 117.259 5.58763C116.634 5.31959 116.092 5.31959 115.8 5.31959C115.717 5.31959 114.82 5.3402 114.007 5.75258C112.444 6.53608 111.985 8.35051 111.86 8.84536C111.339 10.8866 111.902 13.4845 113.59 14.6804C114.57 15.3814 115.696 15.4021 115.696 15.4021C116.53 15.4227 117.155 15.1546 117.322 15.0928C118.072 14.7216 118.51 14.1856 118.698 13.9381ZM114.758 8.43299C115.05 7.95876 115.612 7.52577 116.321 7.46392C116.425 7.46392 117.093 7.40206 117.718 7.81443C118.677 8.47423 118.698 9.75258 118.719 10.2474C118.719 10.5567 118.76 12.1649 117.655 12.9072C117.218 13.1959 116.759 13.2577 116.676 13.2577C116.571 13.2577 115.842 13.3196 115.258 12.866C114.57 12.3505 114.487 11.5258 114.403 10.7835C114.383 10.5979 114.341 10.1031 114.445 9.48453C114.508 9.05154 114.549 8.76289 114.758 8.43299Z" fill="#1D2850"/>
<path d="M133.165 15.134C133.102 15.0515 133.04 14.9278 132.998 14.8041C132.894 14.5155 132.894 14.268 132.915 14.1031C132.748 14.2887 132.477 14.5155 132.123 14.7423C131.831 14.9278 131.143 15.3814 130.226 15.4639C129.288 15.5464 127.891 15.2577 127.224 14.1856C126.807 13.5258 126.828 12.8454 126.828 12.5155C126.828 12.2268 126.849 11.4639 127.307 10.8247C128.058 9.77319 129.725 9.36082 130.893 9.3402C131.435 9.3402 132.164 9.40206 132.602 8.92783C132.769 8.76288 132.831 8.5567 132.873 8.43298C132.852 8.26804 132.748 7.87628 132.394 7.60824C132.102 7.38144 131.768 7.40206 131.31 7.40206C130.788 7.42267 130.372 7.42267 130.017 7.71133C129.642 8.02061 129.538 8.47422 129.517 8.68041C128.704 8.68041 127.87 8.68041 127.057 8.70103C127.057 8.32989 127.12 7.38144 127.807 6.59793C128.12 6.2268 128.475 6.02061 128.683 5.8969C129.788 5.25773 130.934 5.29896 131.643 5.36082C132.331 5.40206 133.79 5.44329 134.666 6.37113C134.77 6.49484 135.041 6.7835 135.208 7.25773C135.312 7.58762 135.333 7.87628 135.354 8.47422C135.354 8.76288 135.354 9.15463 135.333 9.62886C135.354 11.1546 135.395 12.6804 135.416 14.1856C135.416 14.2474 135.458 14.3917 135.562 14.5567C135.687 14.701 135.812 14.7629 135.875 14.7835C135.875 14.9072 135.875 15.0103 135.875 15.134C134.978 15.1134 134.082 15.1134 133.165 15.134ZM132.852 10.4948C132.79 10.5361 132.685 10.6186 132.539 10.701C131.935 11.0103 131.56 10.9072 130.684 11.1134C130.246 11.2165 130.017 11.2783 129.809 11.4433C129.371 11.8144 129.35 12.3711 129.35 12.4124C129.35 12.4948 129.329 13.0103 129.725 13.3814C130.267 13.8969 131.143 13.6082 131.393 13.5258C131.56 13.4639 132.289 13.2165 132.623 12.5567C132.769 12.2887 132.81 11.9588 132.831 11.8557C132.831 11.7938 132.852 11.6495 132.873 11.1959C132.873 10.9072 132.873 10.6598 132.852 10.4948Z" fill="#1D2850"/>
<path d="M38.6278 22.6598C38.4194 22.6598 38.2109 22.6598 38.0024 22.6598C38.0024 22.4124 38.0024 22.1443 38.0024 21.8969C38.2109 21.8969 38.3985 21.8969 38.607 21.8969V21.567C38.607 21.4846 38.5653 20.8454 39.0031 20.4949C39.3366 20.2268 39.7952 20.2474 40.1287 20.2474C40.2955 20.2474 40.4206 20.2681 40.5248 20.2887C40.5248 20.598 40.5248 20.9072 40.504 21.2165C40.3581 21.1753 40.233 21.1753 40.1704 21.1753C40.0454 21.1753 39.9411 21.1753 39.8577 21.2577C39.8161 21.3196 39.7952 21.4021 39.7952 21.4433C39.7952 21.6083 39.7952 21.7526 39.7952 21.8969C40.0454 21.8969 40.3164 21.8969 40.5665 21.8969C40.5665 22.1443 40.5665 22.4124 40.5665 22.6598C40.3164 22.6598 40.0454 22.6598 39.7952 22.6598C39.7952 23.8351 39.7952 25.0103 39.7952 26.1856C39.3991 26.1856 39.0239 26.1856 38.6278 26.1856C38.6278 25.0103 38.6278 23.8351 38.6278 22.6598Z" fill="#1D2850"/>
<path d="M46.2159 20.3093H45.0693V21.3196H46.2159V20.3093Z" fill="#1D2850"/>
<path d="M46.2367 21.8557H45.0693V26.1856H46.2367V21.8557Z" fill="#1D2850"/>
<path d="M49.7179 26.1443C49.6971 26.1031 49.6763 26.0618 49.6346 26C49.5929 25.8763 49.5929 25.7526 49.5929 25.6907C49.5095 25.7732 49.3844 25.8763 49.2385 25.9794C49.1134 26.0618 48.7799 26.268 48.3838 26.3093C47.9669 26.3505 47.3206 26.2062 47.0288 25.7319C46.8412 25.4433 46.8412 25.1134 46.8412 24.9897C46.8412 24.866 46.8412 24.5154 47.0705 24.2268C47.404 23.7526 48.1753 23.567 48.6965 23.5464C48.9466 23.5464 49.2802 23.567 49.4886 23.3608C49.572 23.2783 49.5929 23.1959 49.6137 23.134C49.5929 23.0721 49.5512 22.8866 49.4053 22.7629C49.2802 22.6598 49.1134 22.6598 48.905 22.6804C48.6756 22.6804 48.488 22.6804 48.3213 22.8247C48.1545 22.9691 48.1128 23.1752 48.092 23.2577C47.7167 23.2577 47.3415 23.2577 46.9663 23.2577C46.9663 23.0928 46.9871 22.6598 47.2998 22.3093C47.4457 22.1443 47.5916 22.0618 47.6959 22C48.1962 21.7113 48.7173 21.7319 49.0509 21.7526C49.3636 21.7732 50.0306 21.7938 50.4267 22.2062C50.4684 22.268 50.5935 22.3917 50.6769 22.5979C50.7186 22.7423 50.7394 22.8866 50.7394 23.1546C50.7394 23.2783 50.7394 23.4639 50.7394 23.6701C50.7603 24.3505 50.7603 25.0515 50.7811 25.7319C50.7811 25.7526 50.8019 25.835 50.8436 25.8969C50.8853 25.9587 50.9687 25.9794 50.9896 26C50.9896 26.0412 50.9896 26.1031 50.9896 26.1649C50.5518 26.1443 50.1349 26.1443 49.7179 26.1443ZM49.572 24.0618C49.5512 24.0825 49.4886 24.1237 49.4261 24.1443C49.1551 24.2886 48.9883 24.2268 48.5923 24.3299C48.3838 24.3711 48.3004 24.4124 48.1962 24.4948C47.9877 24.6598 47.9877 24.9072 47.9877 24.9278C47.9877 24.9691 47.9877 25.1959 48.1545 25.3608C48.4046 25.5876 48.8007 25.4639 48.9258 25.4227C49.0092 25.402 49.3427 25.2783 49.4886 24.9897C49.5512 24.866 49.572 24.7216 49.5929 24.6804C49.5929 24.6598 49.6137 24.5979 49.6137 24.3917C49.572 24.2474 49.572 24.1237 49.572 24.0618Z" fill="#1D2850"/>
<path d="M53.6162 23.8763C53.6579 23.5051 53.7413 22.6598 54.4292 22.1237C54.9712 21.7113 55.5757 21.7113 55.8259 21.7113C56.0969 21.7113 56.6597 21.7113 57.16 22.0825C57.9939 22.701 57.973 23.7938 57.973 23.9794C57.973 24.1031 57.973 24.1856 57.9522 24.2474C56.889 24.2474 55.8259 24.268 54.7836 24.268C54.7836 24.3917 54.8044 24.7216 55.0546 25.0103C55.409 25.4021 56.0969 25.4639 56.493 25.1753C56.618 25.0722 56.7014 24.9691 56.7431 24.866C57.1392 24.866 57.5353 24.866 57.9313 24.866C57.9105 24.9691 57.8688 25.134 57.7646 25.299C57.577 25.6289 57.3268 25.8144 57.2017 25.8969C56.6806 26.2474 56.1177 26.2474 55.9093 26.2474C55.6174 26.2474 54.596 26.2062 54.0331 25.4639C53.8247 25.1959 53.7413 24.9072 53.6996 24.7629C53.6579 24.7216 53.5745 24.3711 53.6162 23.8763ZM56.8057 23.567C56.8057 23.5051 56.7848 23.1546 56.493 22.8866C56.2428 22.6598 55.9301 22.6598 55.8259 22.6598C55.7217 22.6598 55.4715 22.6598 55.2422 22.8247C54.867 23.0722 54.8461 23.5051 54.8461 23.567C55.4715 23.567 56.1386 23.567 56.8057 23.567Z" fill="#1D2850"/>
<path d="M70.1262 26.1856C70.1054 26.1443 70.0846 26.1031 70.0429 26.0412C70.0012 25.9175 70.0012 25.7938 70.0012 25.732C69.9178 25.8144 69.7927 25.9175 69.6468 26.0206C69.5217 26.1031 69.1882 26.3093 68.7712 26.3505C68.3543 26.3918 67.7081 26.2474 67.4162 25.7732C67.2286 25.4845 67.2286 25.1546 67.2495 25.0309C67.2495 24.9072 67.2495 24.5567 67.4788 24.268C67.8123 23.7938 68.5836 23.6083 69.1048 23.5876C69.3549 23.5876 69.6885 23.6083 69.8969 23.4021C69.9803 23.3196 70.0012 23.2371 70.022 23.1753C70.0012 23.1134 69.9595 22.9278 69.8136 22.8041C69.6885 22.701 69.5426 22.701 69.3132 22.7217C69.0839 22.7217 68.8963 22.7217 68.7296 22.866C68.5628 23.0103 68.5211 23.2165 68.5002 23.299C68.125 23.299 67.7498 23.299 67.3746 23.299C67.3746 23.134 67.3954 22.701 67.7081 22.3505C67.854 22.1856 67.9999 22.1031 68.1042 22.0412C68.6045 21.7526 69.1256 21.7732 69.4592 21.7938C69.7719 21.8144 70.4389 21.8351 70.835 22.2474C70.8767 22.3093 71.0018 22.433 71.0852 22.6392C71.1269 22.7835 71.1477 22.9278 71.1477 23.1959C71.1477 23.3196 71.1477 23.5052 71.1477 23.7113C71.1686 24.3918 71.1686 25.0928 71.1894 25.7732C71.1894 25.7938 71.2102 25.8763 71.2519 25.9381C71.2936 26 71.377 26.0206 71.3979 26.0412C71.3979 26.0825 71.3979 26.1443 71.3979 26.2062C70.9601 26.1856 70.5432 26.1856 70.1262 26.1856ZM70.0012 24.1031C69.9803 24.1237 69.9178 24.165 69.8552 24.1856C69.5842 24.3299 69.4175 24.268 69.0214 24.3711C68.8129 24.4124 68.7296 24.4536 68.6253 24.5361C68.4169 24.701 68.4169 24.9485 68.4169 24.9691C68.4169 25.0103 68.4169 25.2371 68.5836 25.4021C68.8338 25.6289 69.2299 25.5052 69.3549 25.4639C69.4383 25.4433 69.7719 25.3196 69.9178 25.0309C69.9803 24.9072 70.0012 24.7629 70.022 24.7217C70.022 24.701 70.0429 24.6392 70.0429 24.433C70.0012 24.2887 70.0012 24.1856 70.0012 24.1031Z" fill="#1D2850"/>
<path d="M71.8773 21.8351C72.2317 21.8351 72.6069 21.8351 72.9613 21.8351C72.9613 22.0825 72.9613 22.3093 72.9822 22.5567C73.0239 22.4536 73.2115 22.0619 73.6701 21.8557C73.9828 21.7113 74.2746 21.732 74.3997 21.7526C74.3997 22.1443 74.3997 22.5155 74.3997 22.9072C74.3789 22.9072 74.3372 22.9072 74.2955 22.9072H74.2746C73.7535 22.866 73.4825 23.0103 73.4825 23.0103C73.4199 23.0516 73.2323 23.1546 73.1281 23.3608C73.0655 23.5052 73.0447 23.6907 73.0239 23.8969C73.0239 23.8969 73.0239 23.9382 73.0239 23.9794C73.003 24.2887 73.003 25.732 73.0239 26.165C72.6486 26.165 72.2734 26.165 71.8982 26.165C71.8773 24.701 71.8773 23.2784 71.8773 21.8351Z" fill="#1D2850"/>
<path d="M78.8608 23.8763C78.9025 23.5051 78.9859 22.6598 79.6738 22.1237C80.2158 21.7113 80.8203 21.7113 81.0705 21.7113C81.3415 21.7113 81.9043 21.7113 82.4046 22.0825C83.2385 22.701 83.2176 23.7938 83.2176 23.9794C83.2176 24.1031 83.2176 24.1856 83.1968 24.2474C82.1336 24.2474 81.0705 24.268 80.0282 24.268C80.0282 24.3917 80.049 24.7216 80.2992 25.0103C80.6536 25.4021 81.3415 25.4639 81.7376 25.1753C81.8626 25.0722 81.946 24.9691 81.9877 24.866C82.3838 24.866 82.7799 24.866 83.1759 24.866C83.1551 24.9691 83.1134 25.134 83.0092 25.299C82.8216 25.6289 82.5714 25.8144 82.4463 25.8969C81.9252 26.2474 81.3623 26.2474 81.1539 26.2474C80.862 26.2474 79.8406 26.2062 79.2777 25.4639C79.0693 25.1959 78.9859 24.9072 78.9442 24.7629C78.9234 24.7216 78.8191 24.3711 78.8608 23.8763ZM82.0503 23.567C82.0503 23.5051 82.0294 23.1546 81.7376 22.8866C81.4874 22.6598 81.1747 22.6598 81.0705 22.6598C80.9663 22.6598 80.7161 22.6598 80.4868 22.8247C80.1116 23.0722 80.0907 23.5051 80.0907 23.567C80.7161 23.567 81.3832 23.567 82.0503 23.567Z" fill="#1D2850"/>
<path d="M83.6764 25.0309C83.6972 24.4742 83.6972 23.732 83.6764 22.7423H83.1135V21.8763H83.6764C83.6764 21.4639 83.6972 21.0515 83.6972 20.6598C84.0725 20.6598 84.4477 20.6598 84.8229 20.6598C84.8229 21.0722 84.8229 21.5052 84.8229 21.9175C85.0731 21.9175 85.3232 21.9175 85.5734 21.9175C85.5734 22.1856 85.5734 22.4536 85.5734 22.7216C85.3232 22.7216 85.0731 22.7216 84.8229 22.7216C84.8229 23.4433 84.8229 24.1443 84.8229 24.866C84.8229 24.8866 84.7604 25.2577 84.9689 25.3814C85.0314 25.4227 85.1356 25.4227 85.2399 25.4227C85.3649 25.4227 85.5317 25.4021 85.5317 25.4021C85.5317 25.6907 85.5317 25.9794 85.5317 26.2474C85.4483 26.2474 85.3024 26.2474 85.1356 26.268C84.5936 26.268 84.4268 26.2474 84.3643 26.2268C84.1975 26.1856 84.0725 26.1649 83.9682 26.0825C83.6347 25.8144 83.6555 25.299 83.6764 25.0309Z" fill="#1D2850"/>
<path d="M87.2618 20.2887H86.1152V21.299H87.2618V20.2887Z" fill="#1D2850"/>
<path d="M87.2617 21.8351H86.0944V26.1649H87.2617V21.8351Z" fill="#1D2850"/>
<path d="M100.958 20.2887H99.8112V21.299H100.958V20.2887Z" fill="#EA6317"/>
<path d="M100.958 21.8557H99.7904V26.1856H100.958V21.8557Z" fill="#EA6317"/>
<path d="M101.958 21.8557C102.313 21.8557 102.667 21.8557 103.022 21.8557C103.022 22.0619 103.022 22.268 103.022 22.4742C103.084 22.3505 103.272 22.0206 103.626 21.8557C103.835 21.7526 104.022 21.7526 104.21 21.7526C104.502 21.7526 105.002 21.732 105.398 22.0412C105.982 22.5155 105.877 23.4021 105.857 23.4433C105.857 24.3711 105.857 25.2783 105.857 26.2062C105.481 26.2062 105.106 26.2062 104.731 26.1856C104.731 25.3608 104.71 24.5361 104.71 23.7113C104.773 23.3402 104.648 22.9897 104.377 22.8247C104.21 22.7216 104.001 22.701 103.939 22.701C103.918 22.701 103.689 22.701 103.501 22.8041C103.209 22.9691 103.042 23.3196 103.063 23.732C103.063 24.5567 103.063 25.3814 103.063 26.2062C102.688 26.2062 102.334 26.2062 101.958 26.2062C101.958 24.7423 101.958 23.299 101.958 21.8557Z" fill="#EA6317"/>
<path d="M106.44 24.8247C106.815 24.8247 107.211 24.8247 107.587 24.8247C107.587 24.8866 107.649 25.2165 107.941 25.3815C108.129 25.5052 108.316 25.4845 108.504 25.4845C108.608 25.4845 109.171 25.4433 109.254 25.1546C109.296 25.0516 109.234 24.9485 109.234 24.9278C109.129 24.7217 108.879 24.6804 108.483 24.5773C108.087 24.4742 107.879 24.433 107.67 24.3711C107.211 24.2062 106.899 24.1031 106.711 23.8144C106.503 23.4845 106.544 23.134 106.565 23.0309C106.565 22.9897 106.607 22.7629 106.753 22.5155C107.003 22.0825 107.399 21.9175 107.545 21.8557C107.962 21.6701 108.316 21.7113 108.712 21.732C109.108 21.7526 109.359 21.8557 109.525 21.9382C109.734 22.0412 109.838 22.1443 109.88 22.1856C109.901 22.2062 109.984 22.3093 110.088 22.4742C110.234 22.7423 110.276 22.9897 110.297 23.1959C109.921 23.1959 109.546 23.1959 109.15 23.1959C109.15 23.0928 109.108 22.9278 109.004 22.8041C108.858 22.6392 108.629 22.6392 108.421 22.6186C108.254 22.6186 108.108 22.6392 108.004 22.6598C107.858 22.701 107.795 22.7835 107.795 22.7835C107.774 22.8041 107.712 22.8866 107.712 23.0103C107.712 23.0722 107.733 23.134 107.753 23.134C107.837 23.299 108.066 23.3402 108.462 23.4433C108.671 23.4845 108.754 23.5052 108.858 23.5258C109.171 23.5876 109.901 23.7113 110.234 24.2268C110.463 24.5773 110.401 24.9691 110.401 25.0722C110.401 25.1546 110.359 25.4433 110.172 25.6907C109.692 26.3918 108.566 26.3299 108.233 26.3093C107.962 26.2887 107.357 26.2474 106.92 25.8557C106.836 25.7732 106.669 25.6495 106.565 25.4021C106.44 25.1753 106.44 24.9485 106.44 24.8247Z" fill="#EA6317"/>
<path d="M112.235 20.2887H111.089V21.299H112.235V20.2887Z" fill="#EA6317"/>
<path d="M112.235 21.8557H111.068V26.1856H112.235V21.8557Z" fill="#EA6317"/>
<path d="M115.967 25.6907C115.967 25.8557 115.967 26.0412 115.967 26.2062C116.342 26.2062 116.717 26.2062 117.093 26.2062C117.093 24.2268 117.093 22.268 117.093 20.2887C116.717 20.2887 116.321 20.2887 115.946 20.2887C115.946 20.9897 115.946 21.6701 115.925 22.3711C115.842 22.2474 115.654 22 115.3 21.8557C115.029 21.732 114.779 21.732 114.633 21.732C114.591 21.732 114.195 21.732 113.82 21.9175C113.111 22.268 112.903 23.1134 112.84 23.3402C112.611 24.2681 112.861 25.4639 113.632 26.0206C114.07 26.3505 114.591 26.3505 114.591 26.3505C114.966 26.3711 115.258 26.2474 115.321 26.2062C115.696 26.0619 115.884 25.8144 115.967 25.6907ZM114.195 23.1753C114.32 22.9691 114.57 22.7629 114.904 22.7423C114.945 22.7423 115.258 22.701 115.529 22.9072C115.967 23.2165 115.967 23.7938 115.988 24.0206C115.988 24.165 116.009 24.9072 115.508 25.2371C115.3 25.3815 115.112 25.4021 115.071 25.4021C115.029 25.4021 114.695 25.4227 114.424 25.2165C114.112 24.9897 114.07 24.5979 114.028 24.2681C114.028 24.1856 114.007 23.9588 114.049 23.6701C114.07 23.4639 114.112 23.3196 114.195 23.1753Z" fill="#EA6317"/>
<path d="M117.614 23.9381C117.655 23.567 117.739 22.7216 118.427 22.1856C118.969 21.7732 119.573 21.7732 119.823 21.7732C120.094 21.7732 120.657 21.7732 121.158 22.1443C121.991 22.7629 121.971 23.8557 121.971 24.0412C121.971 24.1649 121.971 24.2474 121.95 24.3093C120.887 24.3093 119.823 24.3299 118.781 24.3299C118.781 24.4536 118.802 24.7835 119.052 25.0722C119.406 25.4639 120.094 25.5258 120.47 25.2371C120.595 25.134 120.678 25.0309 120.72 24.9278C121.116 24.9278 121.512 24.9278 121.908 24.9278C121.887 25.0309 121.846 25.1959 121.741 25.3608C121.554 25.6907 121.304 25.8763 121.178 25.9588C120.657 26.3093 120.094 26.3093 119.886 26.3093C119.594 26.3093 118.573 26.268 118.01 25.5258C117.801 25.2577 117.718 24.9691 117.676 24.8247C117.676 24.7835 117.572 24.4124 117.614 23.9381ZM120.803 23.6289C120.803 23.567 120.782 23.2165 120.491 22.9485C120.24 22.7216 119.928 22.7216 119.823 22.7216C119.719 22.7216 119.469 22.7216 119.24 22.8866C118.864 23.134 118.844 23.567 118.844 23.6289C119.469 23.6289 120.136 23.6289 120.803 23.6289Z" fill="#EA6317"/>
<path d="M124.118 23.9794C124.118 23.7526 124.118 22.7629 124.91 22.1443C125.473 21.7113 126.098 21.7113 126.327 21.7113C126.557 21.7113 127.099 21.7113 127.62 22.0825C128.495 22.701 128.516 23.8144 128.516 23.9794C128.516 24.2062 128.537 25.3196 127.662 25.9381C127.12 26.3093 126.536 26.2887 126.307 26.268C126.098 26.268 125.473 26.268 124.91 25.8557C124.118 25.2371 124.118 24.2474 124.118 23.9794ZM127.307 23.9588C127.307 23.7113 127.307 23.134 126.89 22.8454C126.661 22.6804 126.369 22.6598 126.307 22.6598C126.244 22.6598 126.036 22.6598 125.848 22.7423C125.306 22.9897 125.285 23.8557 125.285 23.9381C125.285 24.1856 125.264 24.866 125.806 25.1753C126.119 25.3608 126.557 25.3608 126.869 25.1546C127.307 24.8866 127.307 24.3093 127.307 23.9588Z" fill="#EA6317"/>
<path d="M129.079 24.5567V21.8144C129.475 21.8144 129.871 21.8144 130.267 21.8144C130.267 22.6392 130.267 23.4639 130.267 24.2887C130.246 24.4124 130.246 24.5979 130.288 24.8247C130.33 24.9484 130.351 25.0515 130.413 25.134C130.601 25.3608 130.934 25.3402 131.039 25.3402C131.122 25.3402 131.456 25.3196 131.664 25.0722C131.747 24.9691 131.768 24.8866 131.81 24.7835C131.872 24.5773 131.872 24.3917 131.872 24.268C131.872 23.4433 131.872 22.6392 131.893 21.8144C132.289 21.8144 132.665 21.8144 133.061 21.8144V26.1443H132.039V25.4639C131.747 25.8763 131.351 26.2268 130.663 26.2268C129.663 26.2268 129.079 25.567 129.079 24.5567Z" fill="#EA6317"/>
<path d="M134.103 25.0516C134.124 24.4949 134.145 23.7526 134.103 22.7629H133.54V21.9175H134.103C134.103 21.5052 134.124 21.0928 134.124 20.701C134.499 20.701 134.874 20.701 135.25 20.701C135.25 21.1134 135.25 21.5464 135.25 21.9588C135.5 21.9588 135.75 21.9588 136 21.9588C136 22.2268 136 22.4949 136 22.7629C135.75 22.7629 135.5 22.7629 135.25 22.7629C135.25 23.4846 135.25 24.1856 135.25 24.9072C135.25 24.9279 135.187 25.299 135.395 25.4227C135.458 25.4639 135.562 25.4639 135.666 25.4639C135.792 25.4639 135.958 25.4433 135.958 25.4433C135.958 25.732 135.958 26.0206 135.958 26.2887C135.875 26.2887 135.729 26.2887 135.562 26.3093C135.02 26.3093 134.853 26.2887 134.791 26.2681C134.624 26.2268 134.499 26.2062 134.395 26.1237C134.061 25.8557 134.082 25.3196 134.103 25.0516Z" fill="#EA6317"/>
<defs>
<linearGradient id="paint0_linear" x1="1.03215" y1="1.62777" x2="8.00696" y2="13.8418" gradientUnits="userSpaceOnUse">
<stop stop-color="#2A6DB5"/>
<stop offset="0.2403" stop-color="#2B89B0"/>
<stop offset="0.3776" stop-color="#3196A9"/>
<stop offset="0.5022" stop-color="#38A0A2"/>
<stop offset="0.6925" stop-color="#41AB96"/>
<stop offset="0.8643" stop-color="#47B28D"/>
<stop offset="1" stop-color="#4AB48A"/>
</linearGradient>
<linearGradient id="paint1_linear" x1="0.0167084" y1="4.16907" x2="23.6228" y2="4.16907" gradientUnits="userSpaceOnUse">
<stop stop-color="#2A6DB5"/>
<stop offset="1" stop-color="#46B48C"/>
</linearGradient>
<linearGradient id="paint2_linear" x1="8.21129" y1="16.8526" x2="23.6187" y2="16.8526" gradientUnits="userSpaceOnUse">
<stop stop-color="#EA6317"/>
<stop offset="1" stop-color="#CE151A"/>
</linearGradient>
<linearGradient id="paint3_linear" x1="23.6333" y1="22.2021" x2="0.0292406" y2="22.2021" gradientUnits="userSpaceOnUse">
<stop stop-color="#EA6317"/>
<stop offset="1" stop-color="#CE151A"/>
</linearGradient>
</defs>
</svg>
